solid CATIA STL
  facet normal -7.071068e-001  0.000000e+000 -7.071068e-001
    outer loop
      vertex -4.824632e+001  4.158374e+001  5.392589e+001
      vertex -4.845324e+001 -4.155492e+001  5.413282e+001
      vertex -4.845324e+001  4.155492e+001  5.413282e+001
    endloop
  endfacet
  facet normal -7.071068e-001  0.000000e+000 -7.071068e-001
    outer loop
      vertex -4.845324e+001 -4.155492e+001  5.413282e+001
      vertex -4.866017e+001  4.158374e+001  5.433974e+001
      vertex -4.845324e+001  4.155492e+001  5.413282e+001
    endloop
  endfacet
  facet normal -7.071000e-001  3.379468e-008 -7.071136e-001
    outer loop
      vertex -4.885914e+001  4.166910e+001  5.453871e+001
      vertex -4.866017e+001  4.158374e+001  5.433974e+001
      vertex -4.845324e+001 -4.155492e+001  5.413282e+001
    endloop
  endfacet
  facet normal -7.071068e-001  9.004227e-007 -7.071068e-001
    outer loop
      vertex -2.959400e+001 -4.705492e+001  3.527357e+001
      vertex -5.835274e+001 -4.705492e+001  6.403231e+001
      vertex -4.845324e+001 -4.455492e+001  5.413282e+001
    endloop
  endfacet
  facet normal -7.071068e-001  1.589195e-007 -7.071068e-001
    outer loop
      vertex -2.959400e+001 -4.705492e+001  3.527357e+001
      vertex -4.845324e+001 -4.455492e+001  5.413282e+001
      vertex -4.824632e+001 -4.452610e+001  5.392589e+001
    endloop
  endfacet
  facet normal -7.071085e-001 -2.389592e-005 -7.071052e-001
    outer loop
      vertex -2.959400e+001 -4.705492e+001  3.527357e+001
      vertex -4.824632e+001 -4.452610e+001  5.392589e+001
      vertex -4.804735e+001 -4.444074e+001  5.372692e+001
    endloop
  endfacet
  facet normal -7.071068e-001 -5.550617e-008 -7.071068e-001
    outer loop
      vertex -2.959400e+001 -4.705492e+001  3.527357e+001
      vertex -4.804735e+001 -4.444074e+001  5.372692e+001
      vertex -4.786398e+001 -4.430212e+001  5.354354e+001
    endloop
  endfacet
  facet normal -7.071058e-001  1.278443e-005 -7.071078e-001
    outer loop
      vertex -2.959400e+001 -4.705492e+001  3.527357e+001
      vertex -4.786398e+001 -4.430212e+001  5.354354e+001
      vertex -4.770324e+001 -4.411558e+001  5.338282e+001
    endloop
  endfacet
  facet normal -7.071077e-001 -1.077986e-005 -7.071059e-001
    outer loop
      vertex -2.959400e+001 -4.705492e+001  3.527357e+001
      vertex -4.770324e+001 -4.411558e+001  5.338282e+001
      vertex -4.757134e+001 -4.388828e+001  5.325091e+001
    endloop
  endfacet
  facet normal -7.071067e-001 -3.390426e-008 -7.071068e-001
    outer loop
      vertex -2.959400e+001 -4.705492e+001  3.527357e+001
      vertex -4.757134e+001 -4.388828e+001  5.325091e+001
      vertex -4.747332e+001 -4.362894e+001  5.315289e+001
    endloop
  endfacet
  facet normal -7.071058e-001  9.189297e-006 -7.071078e-001
    outer loop
      vertex -2.959400e+001 -4.705492e+001  3.527357e+001
      vertex -4.747332e+001 -4.362894e+001  5.315289e+001
      vertex -4.741296e+001 -4.334756e+001  5.309254e+001
    endloop
  endfacet
  facet normal -7.071068e-001  0.000000e+000 -7.071067e-001
    outer loop
      vertex -2.959400e+001 -4.705492e+001  3.527357e+001
      vertex -4.741296e+001 -4.334756e+001  5.309254e+001
      vertex -2.959400e+001  4.705502e+001  3.527357e+001
    endloop
  endfacet
  facet normal -7.070707e-001 -1.424860e-005 -7.071429e-001
    outer loop
      vertex -2.959400e+001  4.705502e+001  3.527357e+001
      vertex -4.741296e+001 -4.334756e+001  5.309254e+001
      vertex -4.739259e+001 -4.305492e+001  5.307215e+001
    endloop
  endfacet
  facet normal -7.071240e-001  6.817115e-006 -7.070896e-001
    outer loop
      vertex -2.959400e+001  4.705502e+001  3.527357e+001
      vertex -4.739259e+001 -4.305492e+001  5.307215e+001
      vertex -4.741296e+001 -4.276228e+001  5.309254e+001
    endloop
  endfacet
  facet normal -7.070952e-001 -4.612425e-006 -7.071184e-001
    outer loop
      vertex -2.959400e+001  4.705502e+001  3.527357e+001
      vertex -4.741296e+001 -4.276228e+001  5.309254e+001
      vertex -4.747332e+001 -4.248090e+001  5.315289e+001
    endloop
  endfacet
  facet normal -7.071068e-001  6.284709e-009 -7.071068e-001
    outer loop
      vertex -2.959400e+001  4.705502e+001  3.527357e+001
      vertex -4.747332e+001 -4.248090e+001  5.315289e+001
      vertex -4.757134e+001 -4.222157e+001  5.325091e+001
    endloop
  endfacet
  facet normal -7.071144e-001  3.060873e-006 -7.070991e-001
    outer loop
      vertex -2.959400e+001  4.705502e+001  3.527357e+001
      vertex -4.757134e+001 -4.222157e+001  5.325091e+001
      vertex -4.770324e+001 -4.199426e+001  5.338282e+001
    endloop
  endfacet
  facet normal -7.070999e-001 -2.773091e-006 -7.071135e-001
    outer loop
      vertex -2.959400e+001  4.705502e+001  3.527357e+001
      vertex -4.770324e+001 -4.199426e+001  5.338282e+001
      vertex -4.786398e+001 -4.180772e+001  5.354354e+001
    endloop
  endfacet
  facet normal -7.071068e-001  1.790866e-008 -7.071068e-001
    outer loop
      vertex -2.959400e+001  4.705502e+001  3.527357e+001
      vertex -4.786398e+001 -4.180772e+001  5.354354e+001
      vertex -4.804735e+001 -4.166910e+001  5.372692e+001
    endloop
  endfacet
  facet normal -7.071130e-001  2.603929e-006 -7.071006e-001
    outer loop
      vertex -2.959400e+001  4.705502e+001  3.527357e+001
      vertex -4.804735e+001 -4.166910e+001  5.372692e+001
      vertex -4.824632e+001 -4.158374e+001  5.392589e+001
    endloop
  endfacet
  facet normal -7.071068e-001 -1.785963e-008 -7.071068e-001
    outer loop
      vertex -2.959400e+001  4.705502e+001  3.527357e+001
      vertex -4.824632e+001 -4.158374e+001  5.392589e+001
      vertex -4.845324e+001 -4.155492e+001  5.413282e+001
    endloop
  endfacet
  facet normal -7.071069e-001  1.087944e-010 -7.071068e-001
    outer loop
      vertex -2.959400e+001  4.705502e+001  3.527357e+001
      vertex -4.845324e+001 -4.155492e+001  5.413282e+001
      vertex -4.824632e+001  4.158374e+001  5.392589e+001
    endloop
  endfacet
  facet normal -7.070922e-001 -9.944793e-005 -7.071212e-001
    outer loop
      vertex -2.959400e+001  4.705502e+001  3.527357e+001
      vertex -4.824632e+001  4.158374e+001  5.392589e+001
      vertex -4.804735e+001  4.166910e+001  5.372692e+001
    endloop
  endfacet
  facet normal -7.071068e-001 -1.073617e-007 -7.071069e-001
    outer loop
      vertex -2.959400e+001  4.705502e+001  3.527357e+001
      vertex -4.804735e+001  4.166910e+001  5.372692e+001
      vertex -4.786398e+001  4.180772e+001  5.354354e+001
    endloop
  endfacet
  facet normal -7.071095e-001  1.919406e-005 -7.071040e-001
    outer loop
      vertex -2.959400e+001  4.705502e+001  3.527357e+001
      vertex -4.786398e+001  4.180772e+001  5.354354e+001
      vertex -4.770324e+001  4.199426e+001  5.338282e+001
    endloop
  endfacet
  facet normal -7.071049e-001 -1.407828e-005 -7.071087e-001
    outer loop
      vertex -2.959400e+001  4.705502e+001  3.527357e+001
      vertex -4.770324e+001  4.199426e+001  5.338282e+001
      vertex -4.757134e+001  4.222157e+001  5.325091e+001
    endloop
  endfacet
  facet normal -7.071068e-001 -4.025173e-008 -7.071068e-001
    outer loop
      vertex -2.959400e+001  4.705502e+001  3.527357e+001
      vertex -4.757134e+001  4.222157e+001  5.325091e+001
      vertex -4.747332e+001  4.248090e+001  5.315289e+001
    endloop
  endfacet
  facet normal -7.071080e-001  1.012248e-005 -7.071056e-001
    outer loop
      vertex -2.959400e+001  4.705502e+001  3.527357e+001
      vertex -4.747332e+001  4.248090e+001  5.315289e+001
      vertex -4.741296e+001  4.276228e+001  5.309254e+001
    endloop
  endfacet
  facet normal -7.071057e-001 -9.371447e-006 -7.071079e-001
    outer loop
      vertex -2.959400e+001  4.705502e+001  3.527357e+001
      vertex -4.741296e+001  4.276228e+001  5.309254e+001
      vertex -4.739259e+001  4.305492e+001  5.307215e+001
    endloop
  endfacet
  facet normal -7.071078e-001  9.078627e-006 -7.071058e-001
    outer loop
      vertex -2.959400e+001  4.705502e+001  3.527357e+001
      vertex -4.739259e+001  4.305492e+001  5.307215e+001
      vertex -4.741296e+001  4.334756e+001  5.309254e+001
    endloop
  endfacet
  facet normal -7.071059e-001 -9.189287e-006 -7.071077e-001
    outer loop
      vertex -2.959400e+001  4.705502e+001  3.527357e+001
      vertex -4.741296e+001  4.334756e+001  5.309254e+001
      vertex -4.747332e+001  4.362894e+001  5.315289e+001
    endloop
  endfacet
  facet normal -7.071067e-001  1.695209e-008 -7.071068e-001
    outer loop
      vertex -2.959400e+001  4.705502e+001  3.527357e+001
      vertex -4.747332e+001  4.362894e+001  5.315289e+001
      vertex -4.757134e+001  4.388828e+001  5.325091e+001
    endloop
  endfacet
  facet normal -7.071078e-001  1.077983e-005 -7.071059e-001
    outer loop
      vertex -2.959400e+001  4.705502e+001  3.527357e+001
      vertex -4.757134e+001  4.388828e+001  5.325091e+001
      vertex -4.770324e+001  4.411558e+001  5.338282e+001
    endloop
  endfacet
  facet normal -7.071058e-001 -1.274059e-005 -7.071078e-001
    outer loop
      vertex -2.959400e+001  4.705502e+001  3.527357e+001
      vertex -4.770324e+001  4.411558e+001  5.338282e+001
      vertex -4.786398e+001  4.430212e+001  5.354354e+001
    endloop
  endfacet
  facet normal -7.071068e-001  1.110117e-007 -7.071068e-001
    outer loop
      vertex -2.959400e+001  4.705502e+001  3.527357e+001
      vertex -4.786398e+001  4.430212e+001  5.354354e+001
      vertex -4.804735e+001  4.444074e+001  5.372692e+001
    endloop
  endfacet
  facet normal -7.071084e-001  2.389570e-005 -7.071052e-001
    outer loop
      vertex -2.959400e+001  4.705502e+001  3.527357e+001
      vertex -4.804735e+001  4.444074e+001  5.372692e+001
      vertex -4.824632e+001  4.452610e+001  5.392589e+001
    endloop
  endfacet
  facet normal -7.071068e-001 -3.178328e-007 -7.071067e-001
    outer loop
      vertex -2.959400e+001  4.705502e+001  3.527357e+001
      vertex -4.824632e+001  4.452610e+001  5.392589e+001
      vertex -4.845324e+001  4.455492e+001  5.413282e+001
    endloop
  endfacet
  facet normal -7.071068e-001 -9.003870e-007 -7.071068e-001
    outer loop
      vertex -2.959400e+001  4.705502e+001  3.527357e+001
      vertex -4.845324e+001  4.455492e+001  5.413282e+001
      vertex -5.835274e+001  4.705502e+001  6.403231e+001
    endloop
  endfacet
  facet normal -7.071067e-001 -6.301269e-007 -7.071068e-001
    outer loop
      vertex -5.835274e+001  4.705502e+001  6.403231e+001
      vertex -4.845324e+001  4.455492e+001  5.413282e+001
      vertex -4.866017e+001  4.452610e+001  5.433974e+001
    endloop
  endfacet
  facet normal -7.071041e-001  1.925905e-005 -7.071094e-001
    outer loop
      vertex -5.835274e+001  4.705502e+001  6.403231e+001
      vertex -4.866017e+001  4.452610e+001  5.433974e+001
      vertex -4.885914e+001  4.444074e+001  5.453871e+001
    endloop
  endfacet
  facet normal -7.071087e-001 -1.422624e-005 -7.071048e-001
    outer loop
      vertex -5.835274e+001  4.705502e+001  6.403231e+001
      vertex -4.885914e+001  4.444074e+001  5.453871e+001
      vertex -4.904251e+001  4.430212e+001  5.472209e+001
    endloop
  endfacet
  facet normal -7.071066e-001 -2.320839e-007 -7.071069e-001
    outer loop
      vertex -5.835274e+001  4.705502e+001  6.403231e+001
      vertex -4.904251e+001  4.430212e+001  5.472209e+001
      vertex -4.920324e+001  4.411558e+001  5.488282e+001
    endloop
  endfacet
  facet normal -7.071051e-001  9.838655e-006 -7.071085e-001
    outer loop
      vertex -5.835274e+001  4.705502e+001  6.403231e+001
      vertex -4.920324e+001  4.411558e+001  5.488282e+001
      vertex -4.933515e+001  4.388828e+001  5.501472e+001
    endloop
  endfacet
  facet normal -7.071068e-001  0.000000e+000 -7.071068e-001
    outer loop
      vertex -5.835274e+001  4.705502e+001  6.403231e+001
      vertex -4.933515e+001  4.388828e+001  5.501472e+001
      vertex -4.943317e+001  4.362894e+001  5.511274e+001
    endloop
  endfacet
  facet normal -7.071068e-001  0.000000e+000 -7.071068e-001
    outer loop
      vertex -5.835274e+001  4.705502e+001  6.403231e+001
      vertex -4.943317e+001  4.362894e+001  5.511274e+001
      vertex -4.949353e+001  4.334756e+001  5.517310e+001
    endloop
  endfacet
  facet normal -7.071068e-001  0.000000e+000 -7.071068e-001
    outer loop
      vertex -5.835274e+001  4.705502e+001  6.403231e+001
      vertex -4.949353e+001  4.334756e+001  5.517310e+001
      vertex -4.951390e+001  4.305492e+001  5.519347e+001
    endloop
  endfacet
  facet normal -7.071068e-001  0.000000e+000 -7.071068e-001
    outer loop
      vertex -5.835274e+001  4.705502e+001  6.403231e+001
      vertex -4.951390e+001  4.305492e+001  5.519347e+001
      vertex -4.949353e+001  4.276228e+001  5.517310e+001
    endloop
  endfacet
  facet normal -7.071068e-001  0.000000e+000 -7.071068e-001
    outer loop
      vertex -5.835274e+001  4.705502e+001  6.403231e+001
      vertex -4.949353e+001  4.276228e+001  5.517310e+001
      vertex -4.943317e+001  4.248090e+001  5.511274e+001
    endloop
  endfacet
  facet normal -7.071068e-001  0.000000e+000 -7.071068e-001
    outer loop
      vertex -5.835274e+001  4.705502e+001  6.403231e+001
      vertex -4.943317e+001  4.248090e+001  5.511274e+001
      vertex -4.933515e+001  4.222157e+001  5.501472e+001
    endloop
  endfacet
  facet normal -7.071114e-001 -1.719072e-005 -7.071022e-001
    outer loop
      vertex -5.835274e+001  4.705502e+001  6.403231e+001
      vertex -4.933515e+001  4.222157e+001  5.501472e+001
      vertex -4.920324e+001  4.199426e+001  5.488282e+001
    endloop
  endfacet
  facet normal -7.071065e-001  4.717781e-007 -7.071071e-001
    outer loop
      vertex -5.835274e+001  4.705502e+001  6.403231e+001
      vertex -4.920324e+001  4.199426e+001  5.488282e+001
      vertex -4.904251e+001  4.180772e+001  5.472209e+001
    endloop
  endfacet
  facet normal -7.070847e-001  7.805151e-005 -7.071288e-001
    outer loop
      vertex -5.835274e+001  4.705502e+001  6.403231e+001
      vertex -4.904251e+001  4.180772e+001  5.472209e+001
      vertex -4.885914e+001  4.166910e+001  5.453871e+001
    endloop
  endfacet
  facet normal -7.071068e-001 -3.230917e-008 -7.071068e-001
    outer loop
      vertex -5.835274e+001  4.705502e+001  6.403231e+001
      vertex -4.885914e+001  4.166910e+001  5.453871e+001
      vertex -4.845324e+001 -4.155492e+001  5.413282e+001
    endloop
  endfacet
  facet normal -7.071068e-001 -2.716099e-008 -7.071068e-001
    outer loop
      vertex -5.835274e+001  4.705502e+001  6.403231e+001
      vertex -4.845324e+001 -4.155492e+001  5.413282e+001
      vertex -4.866017e+001 -4.158374e+001  5.433974e+001
    endloop
  endfacet
  facet normal -7.071003e-001  1.387849e-006 -7.071133e-001
    outer loop
      vertex -5.835274e+001  4.705502e+001  6.403231e+001
      vertex -4.866017e+001 -4.158374e+001  5.433974e+001
      vertex -4.885914e+001 -4.166910e+001  5.453871e+001
    endloop
  endfacet
  facet normal -7.071136e-001 -1.452374e-006 -7.071000e-001
    outer loop
      vertex -5.835274e+001  4.705502e+001  6.403231e+001
      vertex -4.885914e+001 -4.166910e+001  5.453871e+001
      vertex -4.904251e+001 -4.180772e+001  5.472209e+001
    endloop
  endfacet
  facet normal -7.071068e-001 -3.157162e-008 -7.071068e-001
    outer loop
      vertex -5.835274e+001  4.705502e+001  6.403231e+001
      vertex -4.904251e+001 -4.180772e+001  5.472209e+001
      vertex -4.920324e+001 -4.199426e+001  5.488282e+001
    endloop
  endfacet
  facet normal -7.070981e-001  1.755875e-006 -7.071155e-001
    outer loop
      vertex -5.835274e+001  4.705502e+001  6.403231e+001
      vertex -4.920324e+001 -4.199426e+001  5.488282e+001
      vertex -4.933515e+001 -4.222157e+001  5.501472e+001
    endloop
  endfacet
  facet normal -7.071068e-001  0.000000e+000 -7.071068e-001
    outer loop
      vertex -5.835274e+001  4.705502e+001  6.403231e+001
      vertex -4.933515e+001 -4.222157e+001  5.501472e+001
      vertex -4.943317e+001 -4.248090e+001  5.511274e+001
    endloop
  endfacet
  facet normal -7.071068e-001  0.000000e+000 -7.071068e-001
    outer loop
      vertex -5.835274e+001  4.705502e+001  6.403231e+001
      vertex -4.943317e+001 -4.248090e+001  5.511274e+001
      vertex -4.949353e+001 -4.276228e+001  5.517310e+001
    endloop
  endfacet
  facet normal -7.071068e-001  0.000000e+000 -7.071068e-001
    outer loop
      vertex -5.835274e+001  4.705502e+001  6.403231e+001
      vertex -4.949353e+001 -4.276228e+001  5.517310e+001
      vertex -4.951390e+001 -4.305492e+001  5.519347e+001
    endloop
  endfacet
  facet normal -7.071068e-001  0.000000e+000 -7.071068e-001
    outer loop
      vertex -5.835274e+001  4.705502e+001  6.403231e+001
      vertex -4.951390e+001 -4.305492e+001  5.519347e+001
      vertex -4.949353e+001 -4.334756e+001  5.517310e+001
    endloop
  endfacet
  facet normal -7.071068e-001  -0.000000e+000 -7.071068e-001
    outer loop
      vertex -5.835274e+001 -4.705492e+001  6.403231e+001
      vertex -5.835274e+001  4.705502e+001  6.403231e+001
      vertex -4.949353e+001 -4.334756e+001  5.517310e+001
    endloop
  endfacet
  facet normal -7.071068e-001  0.000000e+000 -7.071068e-001
    outer loop
      vertex -5.835274e+001 -4.705492e+001  6.403231e+001
      vertex -4.949353e+001 -4.334756e+001  5.517310e+001
      vertex -4.943317e+001 -4.362894e+001  5.511274e+001
    endloop
  endfacet
  facet normal -7.071068e-001  0.000000e+000 -7.071068e-001
    outer loop
      vertex -5.835274e+001 -4.705492e+001  6.403231e+001
      vertex -4.943317e+001 -4.362894e+001  5.511274e+001
      vertex -4.933515e+001 -4.388828e+001  5.501472e+001
    endloop
  endfacet
  facet normal -7.071050e-001 -9.838707e-006 -7.071085e-001
    outer loop
      vertex -5.835274e+001 -4.705492e+001  6.403231e+001
      vertex -4.933515e+001 -4.388828e+001  5.501472e+001
      vertex -4.920324e+001 -4.411558e+001  5.488282e+001
    endloop
  endfacet
  facet normal -7.071066e-001  1.934047e-007 -7.071069e-001
    outer loop
      vertex -5.835274e+001 -4.705492e+001  6.403231e+001
      vertex -4.920324e+001 -4.411558e+001  5.488282e+001
      vertex -4.904251e+001 -4.430212e+001  5.472209e+001
    endloop
  endfacet
  facet normal -7.071088e-001  1.427333e-005 -7.071048e-001
    outer loop
      vertex -5.835274e+001 -4.705492e+001  6.403231e+001
      vertex -4.904251e+001 -4.430212e+001  5.472209e+001
      vertex -4.885914e+001 -4.444074e+001  5.453871e+001
    endloop
  endfacet
  facet normal -7.071041e-001 -1.925933e-005 -7.071094e-001
    outer loop
      vertex -5.835274e+001 -4.705492e+001  6.403231e+001
      vertex -4.885914e+001 -4.444074e+001  5.453871e+001
      vertex -4.866017e+001 -4.452610e+001  5.433974e+001
    endloop
  endfacet
  facet normal -7.071067e-001  6.301429e-007 -7.071068e-001
    outer loop
      vertex -5.835274e+001 -4.705492e+001  6.403231e+001
      vertex -4.866017e+001 -4.452610e+001  5.433974e+001
      vertex -4.845324e+001 -4.455492e+001  5.413282e+001
    endloop
  endfacet
  facet normal  7.071068e-001  -0.000000e+000  7.071068e-001
    outer loop
      vertex -4.653885e+001  4.158374e+001  5.646106e+001
      vertex -4.633192e+001 -4.155492e+001  5.625414e+001
      vertex -4.633192e+001  4.155492e+001  5.625414e+001
    endloop
  endfacet
  facet normal  7.071068e-001  0.000000e+000  7.071068e-001
    outer loop
      vertex -4.633192e+001 -4.155492e+001  5.625414e+001
      vertex -4.612500e+001  4.158374e+001  5.604721e+001
      vertex -4.633192e+001  4.155492e+001  5.625414e+001
    endloop
  endfacet
  facet normal  7.071068e-001  0.000000e+000  7.071068e-001
    outer loop
      vertex -4.653885e+001  4.158374e+001  5.646106e+001
      vertex -4.673782e+001  4.166910e+001  5.666003e+001
      vertex -4.633192e+001 -4.155492e+001  5.625414e+001
    endloop
  endfacet
  facet normal  7.071068e-001  0.000000e+000  7.071068e-001
    outer loop
      vertex -4.673782e+001  4.166910e+001  5.666003e+001
      vertex -4.692120e+001  4.180772e+001  5.684341e+001
      vertex -4.633192e+001 -4.155492e+001  5.625414e+001
    endloop
  endfacet
  facet normal  7.071068e-001  0.000000e+000  7.071068e-001
    outer loop
      vertex -5.411010e+001 -4.705492e+001  6.403231e+001
      vertex -2.215136e+001 -4.705492e+001  3.207357e+001
      vertex -4.633192e+001 -4.455492e+001  5.625414e+001
    endloop
  endfacet
  facet normal  7.071068e-001  0.000000e+000  7.071068e-001
    outer loop
      vertex -5.411010e+001 -4.705492e+001  6.403231e+001
      vertex -4.633192e+001 -4.455492e+001  5.625414e+001
      vertex -4.653885e+001 -4.452610e+001  5.646106e+001
    endloop
  endfacet
  facet normal  7.071067e-001  0.000000e+000  7.071067e-001
    outer loop
      vertex -5.411010e+001 -4.705492e+001  6.403231e+001
      vertex -4.653885e+001 -4.452610e+001  5.646106e+001
      vertex -4.673782e+001 -4.444074e+001  5.666003e+001
    endloop
  endfacet
  facet normal  7.071068e-001  0.000000e+000  7.071068e-001
    outer loop
      vertex -5.411010e+001 -4.705492e+001  6.403231e+001
      vertex -4.673782e+001 -4.444074e+001  5.666003e+001
      vertex -4.692120e+001 -4.430212e+001  5.684341e+001
    endloop
  endfacet
  facet normal  7.071068e-001  0.000000e+000  7.071068e-001
    outer loop
      vertex -5.411010e+001 -4.705492e+001  6.403231e+001
      vertex -4.692120e+001 -4.430212e+001  5.684341e+001
      vertex -4.708192e+001 -4.411558e+001  5.700414e+001
    endloop
  endfacet
  facet normal  7.071068e-001  0.000000e+000  7.071068e-001
    outer loop
      vertex -5.411010e+001 -4.705492e+001  6.403231e+001
      vertex -4.708192e+001 -4.411558e+001  5.700414e+001
      vertex -4.721383e+001 -4.388828e+001  5.713604e+001
    endloop
  endfacet
  facet normal  7.071068e-001  0.000000e+000  7.071068e-001
    outer loop
      vertex -5.411010e+001 -4.705492e+001  6.403231e+001
      vertex -4.721383e+001 -4.388828e+001  5.713604e+001
      vertex -4.731185e+001 -4.362894e+001  5.723406e+001
    endloop
  endfacet
  facet normal  7.071068e-001  0.000000e+000  7.071068e-001
    outer loop
      vertex -5.411010e+001 -4.705492e+001  6.403231e+001
      vertex -4.731185e+001 -4.362894e+001  5.723406e+001
      vertex -4.737220e+001 -4.334756e+001  5.729441e+001
    endloop
  endfacet
  facet normal  7.071068e-001  0.000000e+000  7.071068e-001
    outer loop
      vertex -5.411010e+001 -4.705492e+001  6.403231e+001
      vertex -4.737220e+001 -4.334756e+001  5.729441e+001
      vertex -4.739259e+001 -4.305492e+001  5.731480e+001
    endloop
  endfacet
  facet normal  7.071068e-001  0.000000e+000  7.071068e-001
    outer loop
      vertex -5.411010e+001 -4.705492e+001  6.403231e+001
      vertex -4.739259e+001 -4.305492e+001  5.731480e+001
      vertex -5.411010e+001  4.705502e+001  6.403231e+001
    endloop
  endfacet
  facet normal  7.071067e-001  0.000000e+000  7.071067e-001
    outer loop
      vertex -5.411010e+001  4.705502e+001  6.403231e+001
      vertex -4.739259e+001 -4.305492e+001  5.731480e+001
      vertex -4.737220e+001 -4.276228e+001  5.729441e+001
    endloop
  endfacet
  facet normal  7.071068e-001  0.000000e+000  7.071068e-001
    outer loop
      vertex -5.411010e+001  4.705502e+001  6.403231e+001
      vertex -4.737220e+001 -4.276228e+001  5.729441e+001
      vertex -4.731185e+001 -4.248090e+001  5.723406e+001
    endloop
  endfacet
  facet normal  7.071068e-001  0.000000e+000  7.071068e-001
    outer loop
      vertex -5.411010e+001  4.705502e+001  6.403231e+001
      vertex -4.731185e+001 -4.248090e+001  5.723406e+001
      vertex -4.721383e+001 -4.222157e+001  5.713604e+001
    endloop
  endfacet
  facet normal  7.071067e-001  0.000000e+000  7.071067e-001
    outer loop
      vertex -5.411010e+001  4.705502e+001  6.403231e+001
      vertex -4.721383e+001 -4.222157e+001  5.713604e+001
      vertex -4.708192e+001 -4.199426e+001  5.700414e+001
    endloop
  endfacet
  facet normal  7.071068e-001  0.000000e+000  7.071068e-001
    outer loop
      vertex -5.411010e+001  4.705502e+001  6.403231e+001
      vertex -4.708192e+001 -4.199426e+001  5.700414e+001
      vertex -4.692120e+001 -4.180772e+001  5.684341e+001
    endloop
  endfacet
  facet normal  7.071068e-001  0.000000e+000  7.071068e-001
    outer loop
      vertex -5.411010e+001  4.705502e+001  6.403231e+001
      vertex -4.692120e+001 -4.180772e+001  5.684341e+001
      vertex -4.673782e+001 -4.166910e+001  5.666003e+001
    endloop
  endfacet
  facet normal  7.071067e-001  0.000000e+000  7.071067e-001
    outer loop
      vertex -5.411010e+001  4.705502e+001  6.403231e+001
      vertex -4.673782e+001 -4.166910e+001  5.666003e+001
      vertex -4.653885e+001 -4.158374e+001  5.646106e+001
    endloop
  endfacet
  facet normal  7.071068e-001  0.000000e+000  7.071068e-001
    outer loop
      vertex -5.411010e+001  4.705502e+001  6.403231e+001
      vertex -4.653885e+001 -4.158374e+001  5.646106e+001
      vertex -4.633192e+001 -4.155492e+001  5.625414e+001
    endloop
  endfacet
  facet normal  7.071068e-001  0.000000e+000  7.071068e-001
    outer loop
      vertex -5.411010e+001  4.705502e+001  6.403231e+001
      vertex -4.633192e+001 -4.155492e+001  5.625414e+001
      vertex -4.692120e+001  4.180772e+001  5.684341e+001
    endloop
  endfacet
  facet normal  7.071068e-001  0.000000e+000  7.071068e-001
    outer loop
      vertex -5.411010e+001  4.705502e+001  6.403231e+001
      vertex -4.692120e+001  4.180772e+001  5.684341e+001
      vertex -4.708192e+001  4.199426e+001  5.700414e+001
    endloop
  endfacet
  facet normal  7.071068e-001  0.000000e+000  7.071068e-001
    outer loop
      vertex -5.411010e+001  4.705502e+001  6.403231e+001
      vertex -4.708192e+001  4.199426e+001  5.700414e+001
      vertex -4.721383e+001  4.222157e+001  5.713604e+001
    endloop
  endfacet
  facet normal  7.071068e-001  0.000000e+000  7.071068e-001
    outer loop
      vertex -5.411010e+001  4.705502e+001  6.403231e+001
      vertex -4.721383e+001  4.222157e+001  5.713604e+001
      vertex -4.731185e+001  4.248090e+001  5.723406e+001
    endloop
  endfacet
  facet normal  7.071068e-001  0.000000e+000  7.071068e-001
    outer loop
      vertex -5.411010e+001  4.705502e+001  6.403231e+001
      vertex -4.731185e+001  4.248090e+001  5.723406e+001
      vertex -4.737220e+001  4.276228e+001  5.729441e+001
    endloop
  endfacet
  facet normal  7.071068e-001  0.000000e+000  7.071068e-001
    outer loop
      vertex -5.411010e+001  4.705502e+001  6.403231e+001
      vertex -4.737220e+001  4.276228e+001  5.729441e+001
      vertex -4.739259e+001  4.305492e+001  5.731480e+001
    endloop
  endfacet
  facet normal  7.071068e-001  0.000000e+000  7.071068e-001
    outer loop
      vertex -5.411010e+001  4.705502e+001  6.403231e+001
      vertex -4.739259e+001  4.305492e+001  5.731480e+001
      vertex -4.737220e+001  4.334756e+001  5.729441e+001
    endloop
  endfacet
  facet normal  7.071068e-001  0.000000e+000  7.071068e-001
    outer loop
      vertex -5.411010e+001  4.705502e+001  6.403231e+001
      vertex -4.737220e+001  4.334756e+001  5.729441e+001
      vertex -4.731185e+001  4.362894e+001  5.723406e+001
    endloop
  endfacet
  facet normal  7.071068e-001  0.000000e+000  7.071068e-001
    outer loop
      vertex -5.411010e+001  4.705502e+001  6.403231e+001
      vertex -4.731185e+001  4.362894e+001  5.723406e+001
      vertex -4.721383e+001  4.388828e+001  5.713604e+001
    endloop
  endfacet
  facet normal  7.071068e-001  0.000000e+000  7.071068e-001
    outer loop
      vertex -5.411010e+001  4.705502e+001  6.403231e+001
      vertex -4.721383e+001  4.388828e+001  5.713604e+001
      vertex -4.708192e+001  4.411558e+001  5.700414e+001
    endloop
  endfacet
  facet normal  7.071068e-001  0.000000e+000  7.071068e-001
    outer loop
      vertex -5.411010e+001  4.705502e+001  6.403231e+001
      vertex -4.708192e+001  4.411558e+001  5.700414e+001
      vertex -4.692120e+001  4.430212e+001  5.684341e+001
    endloop
  endfacet
  facet normal  7.071068e-001  0.000000e+000  7.071068e-001
    outer loop
      vertex -5.411010e+001  4.705502e+001  6.403231e+001
      vertex -4.692120e+001  4.430212e+001  5.684341e+001
      vertex -4.673782e+001  4.444074e+001  5.666003e+001
    endloop
  endfacet
  facet normal  7.071068e-001  0.000000e+000  7.071068e-001
    outer loop
      vertex -5.411010e+001  4.705502e+001  6.403231e+001
      vertex -4.673782e+001  4.444074e+001  5.666003e+001
      vertex -4.653885e+001  4.452610e+001  5.646106e+001
    endloop
  endfacet
  facet normal  7.071068e-001  0.000000e+000  7.071068e-001
    outer loop
      vertex -5.411010e+001  4.705502e+001  6.403231e+001
      vertex -4.653885e+001  4.452610e+001  5.646106e+001
      vertex -4.633192e+001  4.455492e+001  5.625414e+001
    endloop
  endfacet
  facet normal  7.071068e-001  0.000000e+000  7.071068e-001
    outer loop
      vertex -5.411010e+001  4.705502e+001  6.403231e+001
      vertex -4.633192e+001  4.455492e+001  5.625414e+001
      vertex -2.215136e+001  4.705502e+001  3.207357e+001
    endloop
  endfacet
  facet normal  7.071068e-001  0.000000e+000  7.071068e-001
    outer loop
      vertex -2.215136e+001  4.705502e+001  3.207357e+001
      vertex -4.633192e+001  4.455492e+001  5.625414e+001
      vertex -4.612500e+001  4.452610e+001  5.604721e+001
    endloop
  endfacet
  facet normal  7.071068e-001  0.000000e+000  7.071068e-001
    outer loop
      vertex -2.215136e+001  4.705502e+001  3.207357e+001
      vertex -4.612500e+001  4.452610e+001  5.604721e+001
      vertex -4.592603e+001  4.444074e+001  5.584824e+001
    endloop
  endfacet
  facet normal  7.071068e-001  0.000000e+000  7.071068e-001
    outer loop
      vertex -2.215136e+001  4.705502e+001  3.207357e+001
      vertex -4.592603e+001  4.444074e+001  5.584824e+001
      vertex -4.574265e+001  4.430212e+001  5.566486e+001
    endloop
  endfacet
  facet normal  7.071068e-001  0.000000e+000  7.071068e-001
    outer loop
      vertex -2.215136e+001  4.705502e+001  3.207357e+001
      vertex -4.574265e+001  4.430212e+001  5.566486e+001
      vertex -4.558192e+001  4.411558e+001  5.550414e+001
    endloop
  endfacet
  facet normal  7.071061e-001  1.106478e-005  7.071075e-001
    outer loop
      vertex -2.215136e+001  4.705502e+001  3.207357e+001
      vertex -4.558192e+001  4.411558e+001  5.550414e+001
      vertex -4.545002e+001  4.388828e+001  5.537223e+001
    endloop
  endfacet
  facet normal  7.071075e-001 -9.872488e-006  7.071061e-001
    outer loop
      vertex -2.215136e+001  4.705502e+001  3.207357e+001
      vertex -4.545002e+001  4.388828e+001  5.537223e+001
      vertex -4.535200e+001  4.362894e+001  5.527421e+001
    endloop
  endfacet
  facet normal  7.071068e-001  0.000000e+000  7.071068e-001
    outer loop
      vertex -2.215136e+001  4.705502e+001  3.207357e+001
      vertex -4.535200e+001  4.362894e+001  5.527421e+001
      vertex -4.529165e+001  4.334756e+001  5.521386e+001
    endloop
  endfacet
  facet normal  7.071068e-001  0.000000e+000  7.071068e-001
    outer loop
      vertex -2.215136e+001  4.705502e+001  3.207357e+001
      vertex -4.529165e+001  4.334756e+001  5.521386e+001
      vertex -4.527126e+001  4.305492e+001  5.519347e+001
    endloop
  endfacet
  facet normal  7.071068e-001  0.000000e+000  7.071068e-001
    outer loop
      vertex -2.215136e+001  4.705502e+001  3.207357e+001
      vertex -4.527126e+001  4.305492e+001  5.519347e+001
      vertex -4.529165e+001  4.276228e+001  5.521386e+001
    endloop
  endfacet
  facet normal  7.071068e-001  0.000000e+000  7.071068e-001
    outer loop
      vertex -2.215136e+001  4.705502e+001  3.207357e+001
      vertex -4.529165e+001  4.276228e+001  5.521386e+001
      vertex -4.535200e+001  4.248090e+001  5.527421e+001
    endloop
  endfacet
  facet normal  7.071057e-001  1.123250e-005  7.071079e-001
    outer loop
      vertex -2.215136e+001  4.705502e+001  3.207357e+001
      vertex -4.535200e+001  4.248090e+001  5.527421e+001
      vertex -4.545002e+001  4.222157e+001  5.537223e+001
    endloop
  endfacet
  facet normal  7.071083e-001 -1.357133e-005  7.071053e-001
    outer loop
      vertex -2.215136e+001  4.705502e+001  3.207357e+001
      vertex -4.545002e+001  4.222157e+001  5.537223e+001
      vertex -4.558192e+001  4.199426e+001  5.550414e+001
    endloop
  endfacet
  facet normal  7.071068e-001  0.000000e+000  7.071068e-001
    outer loop
      vertex -2.215136e+001  4.705502e+001  3.207357e+001
      vertex -4.558192e+001  4.199426e+001  5.550414e+001
      vertex -4.574265e+001  4.180772e+001  5.566486e+001
    endloop
  endfacet
  facet normal  7.071068e-001  0.000000e+000  7.071068e-001
    outer loop
      vertex -2.215136e+001  4.705502e+001  3.207357e+001
      vertex -4.574265e+001  4.180772e+001  5.566486e+001
      vertex -4.592603e+001  4.166910e+001  5.584824e+001
    endloop
  endfacet
  facet normal  7.071068e-001  0.000000e+000  7.071068e-001
    outer loop
      vertex -2.215136e+001  4.705502e+001  3.207357e+001
      vertex -4.592603e+001  4.166910e+001  5.584824e+001
      vertex -4.612500e+001  4.158374e+001  5.604721e+001
    endloop
  endfacet
  facet normal  7.071068e-001  0.000000e+000  7.071068e-001
    outer loop
      vertex -2.215136e+001  4.705502e+001  3.207357e+001
      vertex -4.612500e+001  4.158374e+001  5.604721e+001
      vertex -4.633192e+001 -4.155492e+001  5.625414e+001
    endloop
  endfacet
  facet normal  7.071068e-001  0.000000e+000  7.071068e-001
    outer loop
      vertex -2.215136e+001  4.705502e+001  3.207357e+001
      vertex -4.633192e+001 -4.155492e+001  5.625414e+001
      vertex -4.612500e+001 -4.158374e+001  5.604721e+001
    endloop
  endfacet
  facet normal  7.071068e-001  0.000000e+000  7.071068e-001
    outer loop
      vertex -2.215136e+001  4.705502e+001  3.207357e+001
      vertex -4.612500e+001 -4.158374e+001  5.604721e+001
      vertex -4.592603e+001 -4.166910e+001  5.584824e+001
    endloop
  endfacet
  facet normal  7.071068e-001  0.000000e+000  7.071068e-001
    outer loop
      vertex -2.215136e+001  4.705502e+001  3.207357e+001
      vertex -4.592603e+001 -4.166910e+001  5.584824e+001
      vertex -4.574265e+001 -4.180772e+001  5.566486e+001
    endloop
  endfacet
  facet normal  7.071068e-001  0.000000e+000  7.071068e-001
    outer loop
      vertex -2.215136e+001  4.705502e+001  3.207357e+001
      vertex -4.574265e+001 -4.180772e+001  5.566486e+001
      vertex -4.558192e+001 -4.199426e+001  5.550414e+001
    endloop
  endfacet
  facet normal  7.070997e-001  3.703135e-006  7.071138e-001
    outer loop
      vertex -2.215136e+001  4.705502e+001  3.207357e+001
      vertex -4.558192e+001 -4.199426e+001  5.550414e+001
      vertex -4.545002e+001 -4.222157e+001  5.537223e+001
    endloop
  endfacet
  facet normal  7.071149e-001 -4.239570e-006  7.070987e-001
    outer loop
      vertex -2.215136e+001  4.705502e+001  3.207357e+001
      vertex -4.545002e+001 -4.222157e+001  5.537223e+001
      vertex -4.535200e+001 -4.248090e+001  5.527421e+001
    endloop
  endfacet
  facet normal  7.071068e-001  0.000000e+000  7.071068e-001
    outer loop
      vertex -2.215136e+001  4.705502e+001  3.207357e+001
      vertex -4.535200e+001 -4.248090e+001  5.527421e+001
      vertex -4.529165e+001 -4.276228e+001  5.521386e+001
    endloop
  endfacet
  facet normal  7.071068e-001  0.000000e+000  7.071068e-001
    outer loop
      vertex -2.215136e+001  4.705502e+001  3.207357e+001
      vertex -4.529165e+001 -4.276228e+001  5.521386e+001
      vertex -4.527126e+001 -4.305492e+001  5.519347e+001
    endloop
  endfacet
  facet normal  7.071068e-001  0.000000e+000  7.071068e-001
    outer loop
      vertex -2.215136e+001  4.705502e+001  3.207357e+001
      vertex -4.527126e+001 -4.305492e+001  5.519347e+001
      vertex -4.529165e+001 -4.334756e+001  5.521386e+001
    endloop
  endfacet
  facet normal  7.071068e-001  0.000000e+000  7.071068e-001
    outer loop
      vertex -2.215136e+001  4.705502e+001  3.207357e+001
      vertex -4.529165e+001 -4.334756e+001  5.521386e+001
      vertex -4.535200e+001 -4.362894e+001  5.527421e+001
    endloop
  endfacet
  facet normal  7.071068e-001  0.000000e+000  7.071068e-001
    outer loop
      vertex -2.215136e+001 -4.705492e+001  3.207357e+001
      vertex -2.215136e+001  4.705502e+001  3.207357e+001
      vertex -4.535200e+001 -4.362894e+001  5.527421e+001
    endloop
  endfacet
  facet normal  7.071075e-001  9.845963e-006  7.071060e-001
    outer loop
      vertex -2.215136e+001 -4.705492e+001  3.207357e+001
      vertex -4.535200e+001 -4.362894e+001  5.527421e+001
      vertex -4.545002e+001 -4.388828e+001  5.537223e+001
    endloop
  endfacet
  facet normal  7.071061e-001 -1.106481e-005  7.071075e-001
    outer loop
      vertex -2.215136e+001 -4.705492e+001  3.207357e+001
      vertex -4.545002e+001 -4.388828e+001  5.537223e+001
      vertex -4.558192e+001 -4.411558e+001  5.550414e+001
    endloop
  endfacet
  facet normal  7.071068e-001  0.000000e+000  7.071068e-001
    outer loop
      vertex -2.215136e+001 -4.705492e+001  3.207357e+001
      vertex -4.558192e+001 -4.411558e+001  5.550414e+001
      vertex -4.574265e+001 -4.430212e+001  5.566486e+001
    endloop
  endfacet
  facet normal  7.071068e-001  0.000000e+000  7.071068e-001
    outer loop
      vertex -2.215136e+001 -4.705492e+001  3.207357e+001
      vertex -4.574265e+001 -4.430212e+001  5.566486e+001
      vertex -4.592603e+001 -4.444074e+001  5.584824e+001
    endloop
  endfacet
  facet normal  7.071068e-001  0.000000e+000  7.071068e-001
    outer loop
      vertex -2.215136e+001 -4.705492e+001  3.207357e+001
      vertex -4.592603e+001 -4.444074e+001  5.584824e+001
      vertex -4.612500e+001 -4.452610e+001  5.604721e+001
    endloop
  endfacet
  facet normal  7.071068e-001  0.000000e+000  7.071068e-001
    outer loop
      vertex -2.215136e+001 -4.705492e+001  3.207357e+001
      vertex -4.612500e+001 -4.452610e+001  5.604721e+001
      vertex -4.633192e+001 -4.455492e+001  5.625414e+001
    endloop
  endfacet
  facet normal  7.037020e-001  9.800604e-002 -7.037032e-001
    outer loop
      vertex -4.951390e+001 -4.305492e+001  5.519347e+001
      vertex -4.737220e+001 -4.334756e+001  5.729441e+001
      vertex -4.949353e+001 -4.334756e+001  5.517310e+001
    endloop
  endfacet
  facet normal  6.766595e-001  2.902799e-001 -6.766607e-001
    outer loop
      vertex -4.949353e+001 -4.334756e+001  5.517310e+001
      vertex -4.737220e+001 -4.334756e+001  5.729441e+001
      vertex -4.731185e+001 -4.362894e+001  5.723406e+001
    endloop
  endfacet
  facet normal  6.766569e-001  2.902972e-001 -6.766557e-001
    outer loop
      vertex -4.949353e+001 -4.334756e+001  5.517310e+001
      vertex -4.731185e+001 -4.362894e+001  5.723406e+001
      vertex -4.943317e+001 -4.362894e+001  5.511274e+001
    endloop
  endfacet
  facet normal  6.236144e-001  4.713932e-001 -6.236133e-001
    outer loop
      vertex -4.943317e+001 -4.362894e+001  5.511274e+001
      vertex -4.731185e+001 -4.362894e+001  5.723406e+001
      vertex -4.721383e+001 -4.388828e+001  5.713604e+001
    endloop
  endfacet
  facet normal  6.236144e-001  4.713932e-001 -6.236133e-001
    outer loop
      vertex -4.943317e+001 -4.362894e+001  5.511274e+001
      vertex -4.721383e+001 -4.388828e+001  5.713604e+001
      vertex -4.933515e+001 -4.388828e+001  5.501472e+001
    endloop
  endfacet
  facet normal  5.466002e-001  6.343955e-001 -5.465991e-001
    outer loop
      vertex -4.933515e+001 -4.388828e+001  5.501472e+001
      vertex -4.721383e+001 -4.388828e+001  5.713604e+001
      vertex -4.708192e+001 -4.411558e+001  5.700414e+001
    endloop
  endfacet
  facet normal  5.466028e-001  6.343900e-001 -5.466028e-001
    outer loop
      vertex -4.933515e+001 -4.388828e+001  5.501472e+001
      vertex -4.708192e+001 -4.411558e+001  5.700414e+001
      vertex -4.920324e+001 -4.411558e+001  5.488282e+001
    endloop
  endfacet
  facet normal  4.485817e-001  7.730129e-001 -4.485817e-001
    outer loop
      vertex -4.920324e+001 -4.411558e+001  5.488282e+001
      vertex -4.708192e+001 -4.411558e+001  5.700414e+001
      vertex -4.692120e+001 -4.430212e+001  5.684341e+001
    endloop
  endfacet
  facet normal  4.485817e-001  7.730129e-001 -4.485817e-001
    outer loop
      vertex -4.920324e+001 -4.411558e+001  5.488282e+001
      vertex -4.692120e+001 -4.430212e+001  5.684341e+001
      vertex -4.904251e+001 -4.430212e+001  5.472209e+001
    endloop
  endfacet
  facet normal  3.333297e-001  8.819199e-001 -3.333297e-001
    outer loop
      vertex -4.904251e+001 -4.430212e+001  5.472209e+001
      vertex -4.692120e+001 -4.430212e+001  5.684341e+001
      vertex -4.673782e+001 -4.444074e+001  5.666003e+001
    endloop
  endfacet
  facet normal  3.333274e-001  8.819218e-001 -3.333268e-001
    outer loop
      vertex -4.904251e+001 -4.430212e+001  5.472209e+001
      vertex -4.673782e+001 -4.444074e+001  5.666003e+001
      vertex -4.885914e+001 -4.444074e+001  5.453871e+001
    endloop
  endfacet
  facet normal  2.052667e-001  9.569384e-001 -2.052663e-001
    outer loop
      vertex -4.885914e+001 -4.444074e+001  5.453871e+001
      vertex -4.673782e+001 -4.444074e+001  5.666003e+001
      vertex -4.653885e+001 -4.452610e+001  5.646106e+001
    endloop
  endfacet
  facet normal  2.052684e-001  9.569377e-001 -2.052684e-001
    outer loop
      vertex -4.885914e+001 -4.444074e+001  5.453871e+001
      vertex -4.653885e+001 -4.452610e+001  5.646106e+001
      vertex -4.866017e+001 -4.452610e+001  5.433974e+001
    endloop
  endfacet
  facet normal  6.930375e-002  9.951854e-001 -6.930375e-002
    outer loop
      vertex -4.866017e+001 -4.452610e+001  5.433974e+001
      vertex -4.653885e+001 -4.452610e+001  5.646106e+001
      vertex -4.633192e+001 -4.455492e+001  5.625414e+001
    endloop
  endfacet
  facet normal  6.930375e-002  9.951854e-001 -6.930375e-002
    outer loop
      vertex -4.866017e+001 -4.452610e+001  5.433974e+001
      vertex -4.633192e+001 -4.455492e+001  5.625414e+001
      vertex -4.845324e+001 -4.455492e+001  5.413282e+001
    endloop
  endfacet
  facet normal  7.037020e-001  9.802424e-002 -7.037008e-001
    outer loop
      vertex -4.737220e+001 -4.334756e+001  5.729441e+001
      vertex -4.951390e+001 -4.305492e+001  5.519347e+001
      vertex -4.739259e+001 -4.305492e+001  5.731480e+001
    endloop
  endfacet
  facet normal  7.037032e-001 -9.800604e-002 -7.037020e-001
    outer loop
      vertex -4.739259e+001 -4.305492e+001  5.731480e+001
      vertex -4.951390e+001 -4.305492e+001  5.519347e+001
      vertex -4.949353e+001 -4.276228e+001  5.517310e+001
    endloop
  endfacet
  facet normal  7.037008e-001 -9.802424e-002 -7.037020e-001
    outer loop
      vertex -4.739259e+001 -4.305492e+001  5.731480e+001
      vertex -4.949353e+001 -4.276228e+001  5.517310e+001
      vertex -4.737220e+001 -4.276228e+001  5.729441e+001
    endloop
  endfacet
  facet normal  6.766557e-001 -2.902972e-001 -6.766569e-001
    outer loop
      vertex -4.737220e+001 -4.276228e+001  5.729441e+001
      vertex -4.949353e+001 -4.276228e+001  5.517310e+001
      vertex -4.943317e+001 -4.248090e+001  5.511274e+001
    endloop
  endfacet
  facet normal  6.766607e-001 -2.902799e-001 -6.766595e-001
    outer loop
      vertex -4.737220e+001 -4.276228e+001  5.729441e+001
      vertex -4.943317e+001 -4.248090e+001  5.511274e+001
      vertex -4.731185e+001 -4.248090e+001  5.723406e+001
    endloop
  endfacet
  facet normal  6.236143e-001 -4.713936e-001 -6.236132e-001
    outer loop
      vertex -4.731185e+001 -4.248090e+001  5.723406e+001
      vertex -4.943317e+001 -4.248090e+001  5.511274e+001
      vertex -4.933515e+001 -4.222157e+001  5.501472e+001
    endloop
  endfacet
  facet normal  6.236143e-001 -4.713936e-001 -6.236132e-001
    outer loop
      vertex -4.731185e+001 -4.248090e+001  5.723406e+001
      vertex -4.933515e+001 -4.222157e+001  5.501472e+001
      vertex -4.721383e+001 -4.222157e+001  5.713604e+001
    endloop
  endfacet
  facet normal  5.466033e-001 -6.343901e-001 -5.466023e-001
    outer loop
      vertex -4.721383e+001 -4.222157e+001  5.713604e+001
      vertex -4.933515e+001 -4.222157e+001  5.501472e+001
      vertex -4.920324e+001 -4.199426e+001  5.488282e+001
    endloop
  endfacet
  facet normal  5.465996e-001 -6.343955e-001 -5.465996e-001
    outer loop
      vertex -4.721383e+001 -4.222157e+001  5.713604e+001
      vertex -4.920324e+001 -4.199426e+001  5.488282e+001
      vertex -4.708192e+001 -4.199426e+001  5.700414e+001
    endloop
  endfacet
  facet normal  4.485817e-001 -7.730129e-001 -4.485817e-001
    outer loop
      vertex -4.708192e+001 -4.199426e+001  5.700414e+001
      vertex -4.920324e+001 -4.199426e+001  5.488282e+001
      vertex -4.904251e+001 -4.180772e+001  5.472209e+001
    endloop
  endfacet
  facet normal  4.485817e-001 -7.730129e-001 -4.485817e-001
    outer loop
      vertex -4.708192e+001 -4.199426e+001  5.700414e+001
      vertex -4.904251e+001 -4.180772e+001  5.472209e+001
      vertex -4.692120e+001 -4.180772e+001  5.684341e+001
    endloop
  endfacet
  facet normal  3.333270e-001 -8.819219e-001 -3.333270e-001
    outer loop
      vertex -4.692120e+001 -4.180772e+001  5.684341e+001
      vertex -4.904251e+001 -4.180772e+001  5.472209e+001
      vertex -4.885914e+001 -4.166910e+001  5.453871e+001
    endloop
  endfacet
  facet normal  3.333301e-001 -8.819198e-001 -3.333294e-001
    outer loop
      vertex -4.692120e+001 -4.180772e+001  5.684341e+001
      vertex -4.885914e+001 -4.166910e+001  5.453871e+001
      vertex -4.673782e+001 -4.166910e+001  5.666003e+001
    endloop
  endfacet
  facet normal  2.052602e-001 -9.569413e-001 -2.052599e-001
    outer loop
      vertex -4.673782e+001 -4.166910e+001  5.666003e+001
      vertex -4.885914e+001 -4.166910e+001  5.453871e+001
      vertex -4.866017e+001 -4.158374e+001  5.433974e+001
    endloop
  endfacet
  facet normal  2.052583e-001 -9.569420e-001 -2.052583e-001
    outer loop
      vertex -4.673782e+001 -4.166910e+001  5.666003e+001
      vertex -4.866017e+001 -4.158374e+001  5.433974e+001
      vertex -4.653885e+001 -4.158374e+001  5.646106e+001
    endloop
  endfacet
  facet normal  6.931284e-002 -9.951841e-001 -6.931284e-002
    outer loop
      vertex -4.653885e+001 -4.158374e+001  5.646106e+001
      vertex -4.866017e+001 -4.158374e+001  5.433974e+001
      vertex -4.845324e+001 -4.155492e+001  5.413282e+001
    endloop
  endfacet
  facet normal  6.931284e-002 -9.951841e-001 -6.931284e-002
    outer loop
      vertex -4.653885e+001 -4.158374e+001  5.646106e+001
      vertex -4.845324e+001 -4.155492e+001  5.413282e+001
      vertex -4.633192e+001 -4.155492e+001  5.625414e+001
    endloop
  endfacet
  facet normal -7.037020e-001 -9.801522e-002  7.037020e-001
    outer loop
      vertex -4.739259e+001 -4.305492e+001  5.307215e+001
      vertex -4.529165e+001 -4.276228e+001  5.521386e+001
      vertex -4.741296e+001 -4.276228e+001  5.309254e+001
    endloop
  endfacet
  facet normal -6.766599e-001 -2.902801e-001  6.766599e-001
    outer loop
      vertex -4.741296e+001 -4.276228e+001  5.309254e+001
      vertex -4.529165e+001 -4.276228e+001  5.521386e+001
      vertex -4.535200e+001 -4.248090e+001  5.527421e+001
    endloop
  endfacet
  facet normal -6.766576e-001 -2.902888e-001  6.766587e-001
    outer loop
      vertex -4.741296e+001 -4.276228e+001  5.309254e+001
      vertex -4.535200e+001 -4.248090e+001  5.527421e+001
      vertex -4.747332e+001 -4.248090e+001  5.315289e+001
    endloop
  endfacet
  facet normal -6.236106e-001 -4.714004e-001  6.236117e-001
    outer loop
      vertex -4.747332e+001 -4.248090e+001  5.315289e+001
      vertex -4.535200e+001 -4.248090e+001  5.527421e+001
      vertex -4.545002e+001 -4.222157e+001  5.537223e+001
    endloop
  endfacet
  facet normal -6.236138e-001 -4.713933e-001  6.236138e-001
    outer loop
      vertex -4.747332e+001 -4.248090e+001  5.315289e+001
      vertex -4.545002e+001 -4.222157e+001  5.537223e+001
      vertex -4.757134e+001 -4.222157e+001  5.325091e+001
    endloop
  endfacet
  facet normal -5.466028e-001 -6.343900e-001  5.466028e-001
    outer loop
      vertex -4.757134e+001 -4.222157e+001  5.325091e+001
      vertex -4.545002e+001 -4.222157e+001  5.537223e+001
      vertex -4.558192e+001 -4.199426e+001  5.550414e+001
    endloop
  endfacet
  facet normal -5.466028e-001 -6.343900e-001  5.466028e-001
    outer loop
      vertex -4.757134e+001 -4.222157e+001  5.325091e+001
      vertex -4.558192e+001 -4.199426e+001  5.550414e+001
      vertex -4.770324e+001 -4.199426e+001  5.338282e+001
    endloop
  endfacet
  facet normal -4.485817e-001 -7.730129e-001  4.485817e-001
    outer loop
      vertex -4.770324e+001 -4.199426e+001  5.338282e+001
      vertex -4.558192e+001 -4.199426e+001  5.550414e+001
      vertex -4.574265e+001 -4.180772e+001  5.566486e+001
    endloop
  endfacet
  facet normal -4.485782e-001 -7.730165e-001  4.485790e-001
    outer loop
      vertex -4.770324e+001 -4.199426e+001  5.338282e+001
      vertex -4.574265e+001 -4.180772e+001  5.566486e+001
      vertex -4.786398e+001 -4.180772e+001  5.354354e+001
    endloop
  endfacet
  facet normal -3.333240e-001 -8.819239e-001  3.333246e-001
    outer loop
      vertex -4.786398e+001 -4.180772e+001  5.354354e+001
      vertex -4.574265e+001 -4.180772e+001  5.566486e+001
      vertex -4.592603e+001 -4.166910e+001  5.584824e+001
    endloop
  endfacet
  facet normal -3.333301e-001 -8.819198e-001  3.333294e-001
    outer loop
      vertex -4.786398e+001 -4.180772e+001  5.354354e+001
      vertex -4.592603e+001 -4.166910e+001  5.584824e+001
      vertex -4.804735e+001 -4.166910e+001  5.372692e+001
    endloop
  endfacet
  facet normal -2.052620e-001 -9.569405e-001  2.052617e-001
    outer loop
      vertex -4.804735e+001 -4.166910e+001  5.372692e+001
      vertex -4.592603e+001 -4.166910e+001  5.584824e+001
      vertex -4.612500e+001 -4.158374e+001  5.604721e+001
    endloop
  endfacet
  facet normal -2.052600e-001 -9.569413e-001  2.052600e-001
    outer loop
      vertex -4.804735e+001 -4.166910e+001  5.372692e+001
      vertex -4.612500e+001 -4.158374e+001  5.604721e+001
      vertex -4.824632e+001 -4.158374e+001  5.392589e+001
    endloop
  endfacet
  facet normal -6.931284e-002 -9.951841e-001  6.931284e-002
    outer loop
      vertex -4.824632e+001 -4.158374e+001  5.392589e+001
      vertex -4.612500e+001 -4.158374e+001  5.604721e+001
      vertex -4.633192e+001 -4.155492e+001  5.625414e+001
    endloop
  endfacet
  facet normal -6.931284e-002 -9.951841e-001  6.931284e-002
    outer loop
      vertex -4.824632e+001 -4.158374e+001  5.392589e+001
      vertex -4.633192e+001 -4.155492e+001  5.625414e+001
      vertex -4.845324e+001 -4.155492e+001  5.413282e+001
    endloop
  endfacet
  facet normal -7.037008e-001 -9.802424e-002  7.037020e-001
    outer loop
      vertex -4.529165e+001 -4.276228e+001  5.521386e+001
      vertex -4.739259e+001 -4.305492e+001  5.307215e+001
      vertex -4.527126e+001 -4.305492e+001  5.519347e+001
    endloop
  endfacet
  facet normal -7.037014e-001  9.801514e-002  7.037027e-001
    outer loop
      vertex -4.527126e+001 -4.305492e+001  5.519347e+001
      vertex -4.739259e+001 -4.305492e+001  5.307215e+001
      vertex -4.741296e+001 -4.334756e+001  5.309254e+001
    endloop
  endfacet
  facet normal -7.037014e-001  9.802432e-002  7.037014e-001
    outer loop
      vertex -4.527126e+001 -4.305492e+001  5.519347e+001
      vertex -4.741296e+001 -4.334756e+001  5.309254e+001
      vertex -4.529165e+001 -4.334756e+001  5.521386e+001
    endloop
  endfacet
  facet normal -6.766582e-001  2.902885e-001  6.766582e-001
    outer loop
      vertex -4.529165e+001 -4.334756e+001  5.521386e+001
      vertex -4.741296e+001 -4.334756e+001  5.309254e+001
      vertex -4.747332e+001 -4.362894e+001  5.315289e+001
    endloop
  endfacet
  facet normal -6.766595e-001  2.902799e-001  6.766607e-001
    outer loop
      vertex -4.529165e+001 -4.334756e+001  5.521386e+001
      vertex -4.747332e+001 -4.362894e+001  5.315289e+001
      vertex -4.535200e+001 -4.362894e+001  5.527421e+001
    endloop
  endfacet
  facet normal -6.236131e-001  4.713936e-001  6.236142e-001
    outer loop
      vertex -4.535200e+001 -4.362894e+001  5.527421e+001
      vertex -4.747332e+001 -4.362894e+001  5.315289e+001
      vertex -4.757134e+001 -4.388828e+001  5.325091e+001
    endloop
  endfacet
  facet normal -6.236111e-001  4.714005e-001  6.236111e-001
    outer loop
      vertex -4.535200e+001 -4.362894e+001  5.527421e+001
      vertex -4.757134e+001 -4.388828e+001  5.325091e+001
      vertex -4.545002e+001 -4.388828e+001  5.537223e+001
    endloop
  endfacet
  facet normal -5.466028e-001  6.343900e-001  5.466028e-001
    outer loop
      vertex -4.545002e+001 -4.388828e+001  5.537223e+001
      vertex -4.757134e+001 -4.388828e+001  5.325091e+001
      vertex -4.770324e+001 -4.411558e+001  5.338282e+001
    endloop
  endfacet
  facet normal -5.466028e-001  6.343900e-001  5.466028e-001
    outer loop
      vertex -4.545002e+001 -4.388828e+001  5.537223e+001
      vertex -4.770324e+001 -4.411558e+001  5.338282e+001
      vertex -4.558192e+001 -4.411558e+001  5.550414e+001
    endloop
  endfacet
  facet normal -4.485786e-001  7.730166e-001  4.485786e-001
    outer loop
      vertex -4.558192e+001 -4.411558e+001  5.550414e+001
      vertex -4.770324e+001 -4.411558e+001  5.338282e+001
      vertex -4.786398e+001 -4.430212e+001  5.354354e+001
    endloop
  endfacet
  facet normal -4.485813e-001  7.730128e-001  4.485822e-001
    outer loop
      vertex -4.558192e+001 -4.411558e+001  5.550414e+001
      vertex -4.786398e+001 -4.430212e+001  5.354354e+001
      vertex -4.574265e+001 -4.430212e+001  5.566486e+001
    endloop
  endfacet
  facet normal -3.333294e-001  8.819198e-001  3.333301e-001
    outer loop
      vertex -4.574265e+001 -4.430212e+001  5.566486e+001
      vertex -4.786398e+001 -4.430212e+001  5.354354e+001
      vertex -4.804735e+001 -4.444074e+001  5.372692e+001
    endloop
  endfacet
  facet normal -3.333246e-001  8.819239e-001  3.333240e-001
    outer loop
      vertex -4.574265e+001 -4.430212e+001  5.566486e+001
      vertex -4.804735e+001 -4.444074e+001  5.372692e+001
      vertex -4.592603e+001 -4.444074e+001  5.584824e+001
    endloop
  endfacet
  facet normal -2.052685e-001  9.569377e-001  2.052682e-001
    outer loop
      vertex -4.592603e+001 -4.444074e+001  5.584824e+001
      vertex -4.804735e+001 -4.444074e+001  5.372692e+001
      vertex -4.824632e+001 -4.452610e+001  5.392589e+001
    endloop
  endfacet
  facet normal -2.052702e-001  9.569369e-001  2.052702e-001
    outer loop
      vertex -4.592603e+001 -4.444074e+001  5.584824e+001
      vertex -4.824632e+001 -4.452610e+001  5.392589e+001
      vertex -4.612500e+001 -4.452610e+001  5.604721e+001
    endloop
  endfacet
  facet normal -6.930375e-002  9.951854e-001  6.930375e-002
    outer loop
      vertex -4.612500e+001 -4.452610e+001  5.604721e+001
      vertex -4.824632e+001 -4.452610e+001  5.392589e+001
      vertex -4.845324e+001 -4.455492e+001  5.413282e+001
    endloop
  endfacet
  facet normal -6.930375e-002  9.951854e-001  6.930375e-002
    outer loop
      vertex -4.612500e+001 -4.452610e+001  5.604721e+001
      vertex -4.845324e+001 -4.455492e+001  5.413282e+001
      vertex -4.633192e+001 -4.455492e+001  5.625414e+001
    endloop
  endfacet
  facet normal  7.037020e-001  9.800604e-002 -7.037032e-001
    outer loop
      vertex -4.951390e+001  4.305492e+001  5.519347e+001
      vertex -4.737220e+001  4.276228e+001  5.729441e+001
      vertex -4.949353e+001  4.276228e+001  5.517310e+001
    endloop
  endfacet
  facet normal  6.766595e-001  2.902799e-001 -6.766607e-001
    outer loop
      vertex -4.949353e+001  4.276228e+001  5.517310e+001
      vertex -4.737220e+001  4.276228e+001  5.729441e+001
      vertex -4.731185e+001  4.248090e+001  5.723406e+001
    endloop
  endfacet
  facet normal  6.766569e-001  2.902972e-001 -6.766557e-001
    outer loop
      vertex -4.949353e+001  4.276228e+001  5.517310e+001
      vertex -4.731185e+001  4.248090e+001  5.723406e+001
      vertex -4.943317e+001  4.248090e+001  5.511274e+001
    endloop
  endfacet
  facet normal  6.236144e-001  4.713932e-001 -6.236133e-001
    outer loop
      vertex -4.943317e+001  4.248090e+001  5.511274e+001
      vertex -4.731185e+001  4.248090e+001  5.723406e+001
      vertex -4.721383e+001  4.222157e+001  5.713604e+001
    endloop
  endfacet
  facet normal  6.236144e-001  4.713932e-001 -6.236133e-001
    outer loop
      vertex -4.943317e+001  4.248090e+001  5.511274e+001
      vertex -4.721383e+001  4.222157e+001  5.713604e+001
      vertex -4.933515e+001  4.222157e+001  5.501472e+001
    endloop
  endfacet
  facet normal  5.466002e-001  6.343955e-001 -5.465991e-001
    outer loop
      vertex -4.933515e+001  4.222157e+001  5.501472e+001
      vertex -4.721383e+001  4.222157e+001  5.713604e+001
      vertex -4.708192e+001  4.199426e+001  5.700414e+001
    endloop
  endfacet
  facet normal  5.466028e-001  6.343900e-001 -5.466028e-001
    outer loop
      vertex -4.933515e+001  4.222157e+001  5.501472e+001
      vertex -4.708192e+001  4.199426e+001  5.700414e+001
      vertex -4.920324e+001  4.199426e+001  5.488282e+001
    endloop
  endfacet
  facet normal  4.485817e-001  7.730129e-001 -4.485817e-001
    outer loop
      vertex -4.920324e+001  4.199426e+001  5.488282e+001
      vertex -4.708192e+001  4.199426e+001  5.700414e+001
      vertex -4.692120e+001  4.180772e+001  5.684341e+001
    endloop
  endfacet
  facet normal  4.485817e-001  7.730129e-001 -4.485817e-001
    outer loop
      vertex -4.920324e+001  4.199426e+001  5.488282e+001
      vertex -4.692120e+001  4.180772e+001  5.684341e+001
      vertex -4.904251e+001  4.180772e+001  5.472209e+001
    endloop
  endfacet
  facet normal  3.333297e-001  8.819199e-001 -3.333297e-001
    outer loop
      vertex -4.904251e+001  4.180772e+001  5.472209e+001
      vertex -4.692120e+001  4.180772e+001  5.684341e+001
      vertex -4.673782e+001  4.166910e+001  5.666003e+001
    endloop
  endfacet
  facet normal  3.333274e-001  8.819218e-001 -3.333268e-001
    outer loop
      vertex -4.904251e+001  4.180772e+001  5.472209e+001
      vertex -4.673782e+001  4.166910e+001  5.666003e+001
      vertex -4.885914e+001  4.166910e+001  5.453871e+001
    endloop
  endfacet
  facet normal  2.052583e-001  9.569421e-001 -2.052580e-001
    outer loop
      vertex -4.885914e+001  4.166910e+001  5.453871e+001
      vertex -4.673782e+001  4.166910e+001  5.666003e+001
      vertex -4.653885e+001  4.158374e+001  5.646106e+001
    endloop
  endfacet
  facet normal  2.052600e-001  9.569413e-001 -2.052600e-001
    outer loop
      vertex -4.885914e+001  4.166910e+001  5.453871e+001
      vertex -4.653885e+001  4.158374e+001  5.646106e+001
      vertex -4.866017e+001  4.158374e+001  5.433974e+001
    endloop
  endfacet
  facet normal  6.931284e-002  9.951841e-001 -6.931284e-002
    outer loop
      vertex -4.866017e+001  4.158374e+001  5.433974e+001
      vertex -4.653885e+001  4.158374e+001  5.646106e+001
      vertex -4.633192e+001  4.155492e+001  5.625414e+001
    endloop
  endfacet
  facet normal  6.931284e-002  9.951841e-001 -6.931284e-002
    outer loop
      vertex -4.866017e+001  4.158374e+001  5.433974e+001
      vertex -4.633192e+001  4.155492e+001  5.625414e+001
      vertex -4.845324e+001  4.155492e+001  5.413282e+001
    endloop
  endfacet
  facet normal  7.037020e-001  9.802424e-002 -7.037008e-001
    outer loop
      vertex -4.737220e+001  4.276228e+001  5.729441e+001
      vertex -4.951390e+001  4.305492e+001  5.519347e+001
      vertex -4.739259e+001  4.305492e+001  5.731480e+001
    endloop
  endfacet
  facet normal  7.037032e-001 -9.800604e-002 -7.037020e-001
    outer loop
      vertex -4.739259e+001  4.305492e+001  5.731480e+001
      vertex -4.951390e+001  4.305492e+001  5.519347e+001
      vertex -4.949353e+001  4.334756e+001  5.517310e+001
    endloop
  endfacet
  facet normal  7.037008e-001 -9.802424e-002 -7.037020e-001
    outer loop
      vertex -4.739259e+001  4.305492e+001  5.731480e+001
      vertex -4.949353e+001  4.334756e+001  5.517310e+001
      vertex -4.737220e+001  4.334756e+001  5.729441e+001
    endloop
  endfacet
  facet normal  6.766557e-001 -2.902972e-001 -6.766569e-001
    outer loop
      vertex -4.737220e+001  4.334756e+001  5.729441e+001
      vertex -4.949353e+001  4.334756e+001  5.517310e+001
      vertex -4.943317e+001  4.362894e+001  5.511274e+001
    endloop
  endfacet
  facet normal  6.766607e-001 -2.902799e-001 -6.766595e-001
    outer loop
      vertex -4.737220e+001  4.334756e+001  5.729441e+001
      vertex -4.943317e+001  4.362894e+001  5.511274e+001
      vertex -4.731185e+001  4.362894e+001  5.723406e+001
    endloop
  endfacet
  facet normal  6.236143e-001 -4.713936e-001 -6.236132e-001
    outer loop
      vertex -4.731185e+001  4.362894e+001  5.723406e+001
      vertex -4.943317e+001  4.362894e+001  5.511274e+001
      vertex -4.933515e+001  4.388828e+001  5.501472e+001
    endloop
  endfacet
  facet normal  6.236143e-001 -4.713936e-001 -6.236132e-001
    outer loop
      vertex -4.731185e+001  4.362894e+001  5.723406e+001
      vertex -4.933515e+001  4.388828e+001  5.501472e+001
      vertex -4.721383e+001  4.388828e+001  5.713604e+001
    endloop
  endfacet
  facet normal  5.466033e-001 -6.343901e-001 -5.466023e-001
    outer loop
      vertex -4.721383e+001  4.388828e+001  5.713604e+001
      vertex -4.933515e+001  4.388828e+001  5.501472e+001
      vertex -4.920324e+001  4.411558e+001  5.488282e+001
    endloop
  endfacet
  facet normal  5.465996e-001 -6.343955e-001 -5.465996e-001
    outer loop
      vertex -4.721383e+001  4.388828e+001  5.713604e+001
      vertex -4.920324e+001  4.411558e+001  5.488282e+001
      vertex -4.708192e+001  4.411558e+001  5.700414e+001
    endloop
  endfacet
  facet normal  4.485817e-001 -7.730129e-001 -4.485817e-001
    outer loop
      vertex -4.708192e+001  4.411558e+001  5.700414e+001
      vertex -4.920324e+001  4.411558e+001  5.488282e+001
      vertex -4.904251e+001  4.430212e+001  5.472209e+001
    endloop
  endfacet
  facet normal  4.485817e-001 -7.730129e-001 -4.485817e-001
    outer loop
      vertex -4.708192e+001  4.411558e+001  5.700414e+001
      vertex -4.904251e+001  4.430212e+001  5.472209e+001
      vertex -4.692120e+001  4.430212e+001  5.684341e+001
    endloop
  endfacet
  facet normal  3.333270e-001 -8.819219e-001 -3.333270e-001
    outer loop
      vertex -4.692120e+001  4.430212e+001  5.684341e+001
      vertex -4.904251e+001  4.430212e+001  5.472209e+001
      vertex -4.885914e+001  4.444074e+001  5.453871e+001
    endloop
  endfacet
  facet normal  3.333301e-001 -8.819198e-001 -3.333294e-001
    outer loop
      vertex -4.692120e+001  4.430212e+001  5.684341e+001
      vertex -4.885914e+001  4.444074e+001  5.453871e+001
      vertex -4.673782e+001  4.444074e+001  5.666003e+001
    endloop
  endfacet
  facet normal  2.052686e-001 -9.569377e-001 -2.052683e-001
    outer loop
      vertex -4.673782e+001  4.444074e+001  5.666003e+001
      vertex -4.885914e+001  4.444074e+001  5.453871e+001
      vertex -4.866017e+001  4.452610e+001  5.433974e+001
    endloop
  endfacet
  facet normal  2.052667e-001 -9.569383e-001 -2.052667e-001
    outer loop
      vertex -4.673782e+001  4.444074e+001  5.666003e+001
      vertex -4.866017e+001  4.452610e+001  5.433974e+001
      vertex -4.653885e+001  4.452610e+001  5.646106e+001
    endloop
  endfacet
  facet normal  6.930375e-002 -9.951854e-001 -6.930375e-002
    outer loop
      vertex -4.653885e+001  4.452610e+001  5.646106e+001
      vertex -4.866017e+001  4.452610e+001  5.433974e+001
      vertex -4.845324e+001  4.455492e+001  5.413282e+001
    endloop
  endfacet
  facet normal  6.930375e-002 -9.951854e-001 -6.930375e-002
    outer loop
      vertex -4.653885e+001  4.452610e+001  5.646106e+001
      vertex -4.845324e+001  4.455492e+001  5.413282e+001
      vertex -4.633192e+001  4.455492e+001  5.625414e+001
    endloop
  endfacet
  facet normal -7.037020e-001 -9.801522e-002  7.037020e-001
    outer loop
      vertex -4.739259e+001  4.305492e+001  5.307215e+001
      vertex -4.529165e+001  4.334756e+001  5.521386e+001
      vertex -4.741296e+001  4.334756e+001  5.309254e+001
    endloop
  endfacet
  facet normal -6.766599e-001 -2.902801e-001  6.766599e-001
    outer loop
      vertex -4.741296e+001  4.334756e+001  5.309254e+001
      vertex -4.529165e+001  4.334756e+001  5.521386e+001
      vertex -4.535200e+001  4.362894e+001  5.527421e+001
    endloop
  endfacet
  facet normal -6.766576e-001 -2.902888e-001  6.766587e-001
    outer loop
      vertex -4.741296e+001  4.334756e+001  5.309254e+001
      vertex -4.535200e+001  4.362894e+001  5.527421e+001
      vertex -4.747332e+001  4.362894e+001  5.315289e+001
    endloop
  endfacet
  facet normal -6.236106e-001 -4.714004e-001  6.236117e-001
    outer loop
      vertex -4.747332e+001  4.362894e+001  5.315289e+001
      vertex -4.535200e+001  4.362894e+001  5.527421e+001
      vertex -4.545002e+001  4.388828e+001  5.537223e+001
    endloop
  endfacet
  facet normal -6.236138e-001 -4.713933e-001  6.236138e-001
    outer loop
      vertex -4.747332e+001  4.362894e+001  5.315289e+001
      vertex -4.545002e+001  4.388828e+001  5.537223e+001
      vertex -4.757134e+001  4.388828e+001  5.325091e+001
    endloop
  endfacet
  facet normal -5.466028e-001 -6.343900e-001  5.466028e-001
    outer loop
      vertex -4.757134e+001  4.388828e+001  5.325091e+001
      vertex -4.545002e+001  4.388828e+001  5.537223e+001
      vertex -4.558192e+001  4.411558e+001  5.550414e+001
    endloop
  endfacet
  facet normal -5.466028e-001 -6.343900e-001  5.466028e-001
    outer loop
      vertex -4.757134e+001  4.388828e+001  5.325091e+001
      vertex -4.558192e+001  4.411558e+001  5.550414e+001
      vertex -4.770324e+001  4.411558e+001  5.338282e+001
    endloop
  endfacet
  facet normal -4.485817e-001 -7.730129e-001  4.485817e-001
    outer loop
      vertex -4.770324e+001  4.411558e+001  5.338282e+001
      vertex -4.558192e+001  4.411558e+001  5.550414e+001
      vertex -4.574265e+001  4.430212e+001  5.566486e+001
    endloop
  endfacet
  facet normal -4.485782e-001 -7.730165e-001  4.485790e-001
    outer loop
      vertex -4.770324e+001  4.411558e+001  5.338282e+001
      vertex -4.574265e+001  4.430212e+001  5.566486e+001
      vertex -4.786398e+001  4.430212e+001  5.354354e+001
    endloop
  endfacet
  facet normal -3.333240e-001 -8.819239e-001  3.333246e-001
    outer loop
      vertex -4.786398e+001  4.430212e+001  5.354354e+001
      vertex -4.574265e+001  4.430212e+001  5.566486e+001
      vertex -4.592603e+001  4.444074e+001  5.584824e+001
    endloop
  endfacet
  facet normal -3.333301e-001 -8.819198e-001  3.333294e-001
    outer loop
      vertex -4.786398e+001  4.430212e+001  5.354354e+001
      vertex -4.592603e+001  4.444074e+001  5.584824e+001
      vertex -4.804735e+001  4.444074e+001  5.372692e+001
    endloop
  endfacet
  facet normal -2.052704e-001 -9.569368e-001  2.052701e-001
    outer loop
      vertex -4.804735e+001  4.444074e+001  5.372692e+001
      vertex -4.592603e+001  4.444074e+001  5.584824e+001
      vertex -4.612500e+001  4.452610e+001  5.604721e+001
    endloop
  endfacet
  facet normal -2.052684e-001 -9.569377e-001  2.052684e-001
    outer loop
      vertex -4.804735e+001  4.444074e+001  5.372692e+001
      vertex -4.612500e+001  4.452610e+001  5.604721e+001
      vertex -4.824632e+001  4.452610e+001  5.392589e+001
    endloop
  endfacet
  facet normal -6.930375e-002 -9.951854e-001  6.930375e-002
    outer loop
      vertex -4.824632e+001  4.452610e+001  5.392589e+001
      vertex -4.612500e+001  4.452610e+001  5.604721e+001
      vertex -4.633192e+001  4.455492e+001  5.625414e+001
    endloop
  endfacet
  facet normal -6.930375e-002 -9.951854e-001  6.930375e-002
    outer loop
      vertex -4.824632e+001  4.452610e+001  5.392589e+001
      vertex -4.633192e+001  4.455492e+001  5.625414e+001
      vertex -4.845324e+001  4.455492e+001  5.413282e+001
    endloop
  endfacet
  facet normal -7.037008e-001 -9.802424e-002  7.037020e-001
    outer loop
      vertex -4.529165e+001  4.334756e+001  5.521386e+001
      vertex -4.739259e+001  4.305492e+001  5.307215e+001
      vertex -4.527126e+001  4.305492e+001  5.519347e+001
    endloop
  endfacet
  facet normal -7.037014e-001  9.801514e-002  7.037027e-001
    outer loop
      vertex -4.527126e+001  4.305492e+001  5.519347e+001
      vertex -4.739259e+001  4.305492e+001  5.307215e+001
      vertex -4.741296e+001  4.276228e+001  5.309254e+001
    endloop
  endfacet
  facet normal -7.037014e-001  9.802432e-002  7.037014e-001
    outer loop
      vertex -4.527126e+001  4.305492e+001  5.519347e+001
      vertex -4.741296e+001  4.276228e+001  5.309254e+001
      vertex -4.529165e+001  4.276228e+001  5.521386e+001
    endloop
  endfacet
  facet normal -6.766582e-001  2.902885e-001  6.766582e-001
    outer loop
      vertex -4.529165e+001  4.276228e+001  5.521386e+001
      vertex -4.741296e+001  4.276228e+001  5.309254e+001
      vertex -4.747332e+001  4.248090e+001  5.315289e+001
    endloop
  endfacet
  facet normal -6.766595e-001  2.902799e-001  6.766607e-001
    outer loop
      vertex -4.529165e+001  4.276228e+001  5.521386e+001
      vertex -4.747332e+001  4.248090e+001  5.315289e+001
      vertex -4.535200e+001  4.248090e+001  5.527421e+001
    endloop
  endfacet
  facet normal -6.236131e-001  4.713936e-001  6.236142e-001
    outer loop
      vertex -4.535200e+001  4.248090e+001  5.527421e+001
      vertex -4.747332e+001  4.248090e+001  5.315289e+001
      vertex -4.757134e+001  4.222157e+001  5.325091e+001
    endloop
  endfacet
  facet normal -6.236111e-001  4.714005e-001  6.236111e-001
    outer loop
      vertex -4.535200e+001  4.248090e+001  5.527421e+001
      vertex -4.757134e+001  4.222157e+001  5.325091e+001
      vertex -4.545002e+001  4.222157e+001  5.537223e+001
    endloop
  endfacet
  facet normal -5.466028e-001  6.343900e-001  5.466028e-001
    outer loop
      vertex -4.545002e+001  4.222157e+001  5.537223e+001
      vertex -4.757134e+001  4.222157e+001  5.325091e+001
      vertex -4.770324e+001  4.199426e+001  5.338282e+001
    endloop
  endfacet
  facet normal -5.466028e-001  6.343900e-001  5.466028e-001
    outer loop
      vertex -4.545002e+001  4.222157e+001  5.537223e+001
      vertex -4.770324e+001  4.199426e+001  5.338282e+001
      vertex -4.558192e+001  4.199426e+001  5.550414e+001
    endloop
  endfacet
  facet normal -4.485786e-001  7.730166e-001  4.485786e-001
    outer loop
      vertex -4.558192e+001  4.199426e+001  5.550414e+001
      vertex -4.770324e+001  4.199426e+001  5.338282e+001
      vertex -4.786398e+001  4.180772e+001  5.354354e+001
    endloop
  endfacet
  facet normal -4.485813e-001  7.730128e-001  4.485822e-001
    outer loop
      vertex -4.558192e+001  4.199426e+001  5.550414e+001
      vertex -4.786398e+001  4.180772e+001  5.354354e+001
      vertex -4.574265e+001  4.180772e+001  5.566486e+001
    endloop
  endfacet
  facet normal -3.333294e-001  8.819198e-001  3.333301e-001
    outer loop
      vertex -4.574265e+001  4.180772e+001  5.566486e+001
      vertex -4.786398e+001  4.180772e+001  5.354354e+001
      vertex -4.804735e+001  4.166910e+001  5.372692e+001
    endloop
  endfacet
  facet normal -3.333246e-001  8.819239e-001  3.333240e-001
    outer loop
      vertex -4.574265e+001  4.180772e+001  5.566486e+001
      vertex -4.804735e+001  4.166910e+001  5.372692e+001
      vertex -4.592603e+001  4.166910e+001  5.584824e+001
    endloop
  endfacet
  facet normal -2.052601e-001  9.569412e-001  2.052597e-001
    outer loop
      vertex -4.592603e+001  4.166910e+001  5.584824e+001
      vertex -4.804735e+001  4.166910e+001  5.372692e+001
      vertex -4.824632e+001  4.158374e+001  5.392589e+001
    endloop
  endfacet
  facet normal -2.052618e-001  9.569405e-001  2.052618e-001
    outer loop
      vertex -4.592603e+001  4.166910e+001  5.584824e+001
      vertex -4.824632e+001  4.158374e+001  5.392589e+001
      vertex -4.612500e+001  4.158374e+001  5.604721e+001
    endloop
  endfacet
  facet normal -6.931284e-002  9.951841e-001  6.931284e-002
    outer loop
      vertex -4.612500e+001  4.158374e+001  5.604721e+001
      vertex -4.824632e+001  4.158374e+001  5.392589e+001
      vertex -4.845324e+001  4.155492e+001  5.413282e+001
    endloop
  endfacet
  facet normal -6.931284e-002  9.951841e-001  6.931284e-002
    outer loop
      vertex -4.612500e+001  4.158374e+001  5.604721e+001
      vertex -4.845324e+001  4.155492e+001  5.413282e+001
      vertex -4.633192e+001  4.155492e+001  5.625414e+001
    endloop
  endfacet
  facet normal  0.000000e+000 -1.000000e+000  0.000000e+000
    outer loop
      vertex -5.835274e+001 -4.705492e+001  6.403231e+001
      vertex -2.959400e+001 -4.705492e+001  3.527357e+001
      vertex -5.411010e+001 -4.705492e+001  6.403231e+001
    endloop
  endfacet
  facet normal  0.000000e+000 -1.000000e+000  0.000000e+000
    outer loop
      vertex -5.411010e+001 -4.705492e+001  6.403231e+001
      vertex -2.959400e+001 -4.705492e+001  3.527357e+001
      vertex -2.215136e+001 -4.705492e+001  3.207357e+001
    endloop
  endfacet
  facet normal  0.000000e+000 -1.000000e+000  0.000000e+000
    outer loop
      vertex -2.959400e+001 -4.705492e+001  3.527357e+001
      vertex -6.000000e+001 -4.705492e+001  3.527357e+001
      vertex -2.215136e+001 -4.705492e+001  3.207357e+001
    endloop
  endfacet
  facet normal  0.000000e+000 -1.000000e+000  0.000000e+000
    outer loop
      vertex -2.215136e+001 -4.705492e+001  3.207357e+001
      vertex -6.000000e+001 -4.705492e+001  3.527357e+001
      vertex -6.000000e+001 -4.705492e+001  3.207357e+001
    endloop
  endfacet
  facet normal -1.000000e+000  0.000000e+000  0.000000e+000
    outer loop
      vertex -6.000000e+001  4.705502e+001  3.207357e+001
      vertex -6.000000e+001 -4.705492e+001  3.207357e+001
      vertex -6.000000e+001  4.705502e+001  3.527357e+001
    endloop
  endfacet
  facet normal -1.000000e+000  -0.000000e+000  0.000000e+000
    outer loop
      vertex -6.000000e+001  4.705502e+001  3.527357e+001
      vertex -6.000000e+001 -4.705492e+001  3.207357e+001
      vertex -6.000000e+001 -4.705492e+001  3.527357e+001
    endloop
  endfacet
  facet normal  0.000000e+000  0.000000e+000  1.000000e+000
    outer loop
      vertex -6.000000e+001  4.705502e+001  3.527357e+001
      vertex -6.000000e+001 -4.705492e+001  3.527357e+001
      vertex -2.959400e+001  4.705502e+001  3.527357e+001
    endloop
  endfacet
  facet normal  0.000000e+000  0.000000e+000  1.000000e+000
    outer loop
      vertex -2.959400e+001  4.705502e+001  3.527357e+001
      vertex -6.000000e+001 -4.705492e+001  3.527357e+001
      vertex -2.959400e+001 -4.705492e+001  3.527357e+001
    endloop
  endfacet
  facet normal  0.000000e+000  0.000000e+000  1.000000e+000
    outer loop
      vertex -5.835274e+001  4.705502e+001  6.403231e+001
      vertex -5.835274e+001 -4.705492e+001  6.403231e+001
      vertex -5.411010e+001  4.705502e+001  6.403231e+001
    endloop
  endfacet
  facet normal  0.000000e+000  0.000000e+000  1.000000e+000
    outer loop
      vertex -5.411010e+001  4.705502e+001  6.403231e+001
      vertex -5.835274e+001 -4.705492e+001  6.403231e+001
      vertex -5.411010e+001 -4.705492e+001  6.403231e+001
    endloop
  endfacet
  facet normal  0.000000e+000  0.000000e+000 -1.000000e+000
    outer loop
      vertex -2.215136e+001  4.705502e+001  3.207357e+001
      vertex -2.215136e+001 -4.705492e+001  3.207357e+001
      vertex -6.000000e+001  4.705502e+001  3.207357e+001
    endloop
  endfacet
  facet normal  0.000000e+000  0.000000e+000 -1.000000e+000
    outer loop
      vertex -6.000000e+001  4.705502e+001  3.207357e+001
      vertex -2.215136e+001 -4.705492e+001  3.207357e+001
      vertex -6.000000e+001 -4.705492e+001  3.207357e+001
    endloop
  endfacet
  facet normal  0.000000e+000  1.000000e+000  0.000000e+000
    outer loop
      vertex -2.215136e+001  4.705502e+001  3.207357e+001
      vertex -6.000000e+001  4.705502e+001  3.207357e+001
      vertex -6.000000e+001  4.705502e+001  3.527357e+001
    endloop
  endfacet
  facet normal  -0.000000e+000  1.000000e+000  0.000000e+000
    outer loop
      vertex -2.215136e+001  4.705502e+001  3.207357e+001
      vertex -6.000000e+001  4.705502e+001  3.527357e+001
      vertex -2.959400e+001  4.705502e+001  3.527357e+001
    endloop
  endfacet
  facet normal  -0.000000e+000  9.999999e-001  -0.000000e+000
    outer loop
      vertex -2.215136e+001  4.705502e+001  3.207357e+001
      vertex -2.959400e+001  4.705502e+001  3.527357e+001
      vertex -5.835274e+001  4.705502e+001  6.403231e+001
    endloop
  endfacet
  facet normal  -0.000000e+000  1.000000e+000  0.000000e+000
    outer loop
      vertex -2.215136e+001  4.705502e+001  3.207357e+001
      vertex -5.835274e+001  4.705502e+001  6.403231e+001
      vertex -5.411010e+001  4.705502e+001  6.403231e+001
    endloop
  endfacet
endsolid CATIA STL
